HIERARCHY
ROOT hip
{
  OFFSET 0 0 0
  CHANNELS 6 Xposition Yposition Zposition Zrotation Yrotation Xrotation
  JOINT abdomen
  {
    OFFSET 0 20.6881 -0.73152
    CHANNELS 3 Zrotation Xrotation Yrotation
    JOINT chest
    {
      OFFSET 0 11.7043 -0.48768
      CHANNELS 3 Zrotation Xrotation Yrotation
      JOINT neck
      {
        OFFSET 0 22.1894 -2.19456
        CHANNELS 3 Zrotation Xrotation Yrotation
        JOINT head
        {
          OFFSET -0.24384 7.07133 1.2192
          CHANNELS 3 Zrotation Xrotation Yrotation
          JOINT leftEye
          {
            OFFSET 4.14528 8.04674 8.04672
            CHANNELS 3 Zrotation Xrotation Yrotation
            End Site
            {
              OFFSET 1 0 0
            }
          }
          JOINT rightEye
          {
            OFFSET -3.6576 8.04674 8.04672
            CHANNELS 3 Zrotation Xrotation Yrotation
            End Site
            {
              OFFSET 1 0 0
            }
          }
        }
      }
      JOINT rCollar
      {
        OFFSET -2.68224 19.2634 -4.8768
        CHANNELS 3 Zrotation Xrotation Yrotation
        JOINT rShldr
        {
          OFFSET -8.77824 -1.95073 1.46304
          CHANNELS 3 Zrotation Xrotation Yrotation
          JOINT rForeArm
          {
            OFFSET -28.1742 -1.7115 0.48768
            CHANNELS 3 Zrotation Xrotation Yrotation
            JOINT rHand
            {
              OFFSET -22.5879 0.773209 7.07136
              CHANNELS 3 Zrotation Xrotation Yrotation
              JOINT rThumb1
              {
                OFFSET -1.2192 -0.487915 3.41376
                CHANNELS 3 Zrotation Xrotation Yrotation
                JOINT rThumb2
                {
                  OFFSET -3.37035 -0.52449 3.41376
                  CHANNELS 3 Zrotation Xrotation Yrotation
                  End Site
                  {
                    OFFSET -1.78271 -1.18214 1.43049
                  }
                }
              }
              JOINT rIndex1
              {
                OFFSET -7.75947 0.938293 5.60832
                CHANNELS 3 Zrotation Xrotation Yrotation
                JOINT rIndex2
                {
                  OFFSET -2.54057 -0.884171 1.56538
                  CHANNELS 3 Zrotation Xrotation Yrotation
                  End Site
                  {
                    OFFSET -1.62519 -0.234802 1.16502
                  }
                }
              }
              JOINT rMid1
              {
                OFFSET -8.24714 1.18213 3.41376
                CHANNELS 3 Zrotation Xrotation Yrotation
                JOINT rMid2
                {
                  OFFSET -3.10165 -0.590103 1.0647
                  CHANNELS 3 Zrotation Xrotation Yrotation
                  End Site
                  {
                    OFFSET -2.48547 -0.328903 0.83742
                  }
                }
              }
              JOINT rRing1
              {
                OFFSET -8.82822 0.546677 1.51678
                CHANNELS 3 Zrotation Xrotation Yrotation
                JOINT rRing2
                {
                  OFFSET -2.60934 -0.819778 -0.0198488
                  CHANNELS 3 Zrotation Xrotation Yrotation
                  End Site
                  {
                    OFFSET -2.33842 -0.294052 0.168128
                  }
                }
              }
              JOINT rPinky1
              {
                OFFSET -8.27202 -0.0477905 -0.4584
                CHANNELS 3 Zrotation Xrotation Yrotation
                JOINT rPinky2
                {
                  OFFSET -1.82734 -0.647385 -0.700984
                  CHANNELS 3 Zrotation Xrotation Yrotation
                  End Site
                  {
                    OFFSET -1.69225 -0.51767 -0.607171
                  }
                }
              }
            }
          }
        }
      }
      JOINT lCollar
      {
        OFFSET 2.68224 19.2634 -4.8768
        CHANNELS 3 Zrotation Xrotation Yrotation
        JOINT lShldr
        {
          OFFSET 8.77824 -1.95073 1.46304
          CHANNELS 3 Zrotation Xrotation Yrotation
          JOINT lForeArm
          {
            OFFSET 28.1742 -1.7115 0.48768
            CHANNELS 3 Zrotation Xrotation Yrotation
            JOINT lHand
            {
              OFFSET 22.5879 0.773209 7.07136
              CHANNELS 3 Zrotation Xrotation Yrotation
              JOINT lThumb1
              {
                OFFSET 1.2192 -0.487915 3.41376
                CHANNELS 3 Zrotation Xrotation Yrotation
                JOINT lThumb2
                {
                  OFFSET 3.37035 -0.52449 3.41376
                  CHANNELS 3 Zrotation Xrotation Yrotation
                  End Site
                  {
                    OFFSET 1.78271 -1.18214 1.43049
                  }
                }
              }
              JOINT lIndex1
              {
                OFFSET 7.75947 0.938293 5.60832
                CHANNELS 3 Zrotation Xrotation Yrotation
                JOINT lIndex2
                {
                  OFFSET 2.54057 -0.884171 1.56538
                  CHANNELS 3 Zrotation Xrotation Yrotation
                  End Site
                  {
                    OFFSET 1.62519 -0.234802 1.16502
                  }
                }
              }
              JOINT lMid1
              {
                OFFSET 8.24714 1.18213 3.41376
                CHANNELS 3 Zrotation Xrotation Yrotation
                JOINT lMid2
                {
                  OFFSET 3.10165 -0.590103 1.0647
                  CHANNELS 3 Zrotation Xrotation Yrotation
                  End Site
                  {
                    OFFSET 2.48547 -0.328903 0.83742
                  }
                }
              }
              JOINT lRing1
              {
                OFFSET 8.82822 0.546677 1.51678
                CHANNELS 3 Zrotation Xrotation Yrotation
                JOINT lRing2
                {
                  OFFSET 2.60934 -0.819778 -0.0198488
                  CHANNELS 3 Zrotation Xrotation Yrotation
                  End Site
                  {
                    OFFSET 2.33842 -0.294052 0.168128
                  }
                }
              }
              JOINT lPinky1
              {
                OFFSET 8.27202 -0.0477905 -0.4584
                CHANNELS 3 Zrotation Xrotation Yrotation
                JOINT lPinky2
                {
                  OFFSET 1.82734 -0.647385 -0.700984
                  CHANNELS 3 Zrotation Xrotation Yrotation
                  End Site
                  {
                    OFFSET 1.69225 -0.51767 -0.607171
                  }
                }
              }
            }
          }
        }
      }
    }
  }
  JOINT rButtock
  {
    OFFSET -8.77824 4.35084 1.2192
    CHANNELS 3 Zrotation Xrotation Yrotation
    JOINT rThigh
    {
      OFFSET 0 -1.70687 -2.19456
      CHANNELS 3 Zrotation Xrotation Yrotation
      JOINT rShin
      {
        OFFSET 0 -36.8199 0.73152
        CHANNELS 3 Zrotation Xrotation Yrotation
        JOINT rFoot
        {
          OFFSET 0.73152 -45.1104 -5.12064
          CHANNELS 3 Zrotation Xrotation Yrotation
          End Site
          {
            OFFSET -1.1221 -3.69964 12.103
          }
        }
      }
    }
  }
  JOINT lButtock
  {
    OFFSET 8.77824 4.35084 1.2192
    CHANNELS 3 Zrotation Xrotation Yrotation
    JOINT lThigh
    {
      OFFSET 0 -1.70687 -2.19456
      CHANNELS 3 Zrotation Xrotation Yrotation
      JOINT lShin
      {
        OFFSET 0 -36.8199 0.73152
        CHANNELS 3 Zrotation Xrotation Yrotation
        JOINT lFoot
        {
          OFFSET -0.73152 -45.1104 -5.12064
          CHANNELS 3 Zrotation Xrotation Yrotation
          End Site
          {
            OFFSET 1.1221 -3.69964 12.103
          }
        }
      }
    }
  }
}
MOTION
Frames:	7
Frame Time:	0.00833333
2.26948 66.3729 -6.50304 -1.1436 -1.304 15.1499 -2.00956 19.1846 2.65016 3.67413 -11.7357 1.00253 0.380186 -5.59114 1.46756 -1.47106 -18.3035 2.58538 -0.0 0.0 0.0 -0.0 0.0 0.0 5.13704e-14 -3.23841e-13 3.85767e-14 70.7448 24.7428 4.23614 -26.7079 -25.5901 60.0073 -0.128828 -9.91701 -1.40874 2.14918e-09 -4.59804e-09 -7.53699e-09 3.7722e-09 -8.13352e-09 -1.30129e-08 2.14918e-09 -4.59805e-09 -7.537e-09 7.73091 5.47488 0.417314 2.14918e-09 -4.59805e-09 -7.53698e-09 2.90554 0.965183 0.102902 2.14918e-09 -4.59805e-09 -7.53698e-09 10.2786 0.731801 0.0259123 2.14917e-09 -4.59803e-09 -7.53698e-09 2.22167 -0.733487 -0.20892 5.14225e-14 -3.23848e-13 3.83286e-14 -80.8873 36.4314 1.37171 27.4033 -27.9281 -63.7505 0.394186 -17.5051 2.54129 -5.3861e-11 4.69829e-09 8.10434e-09 -2.02463e-10 7.80993e-09 1.40022e-08 -5.38596e-11 4.6983e-09 8.10436e-09 -7.73091 5.47488 -0.417314 -5.38556e-11 4.6983e-09 8.10434e-09 -2.90554 0.965183 -0.102902 -5.38623e-11 4.6983e-09 8.10434e-09 -10.2786 0.731801 -0.0259123 -5.38548e-11 4.6983e-09 8.10433e-09 -2.22167 -0.733487 0.20892 -2.03217e-16 0.0 -3.88251e-19 -20.9656 -37.3628 -3.97707 -0.812618 59.1348 2.35939 -12.2057 -27.4453 -23.1305 2.03217e-16 0.0 3.88251e-19 29.2169 -31.2926 13.4893 0.668298 54.7906 -1.8189 4.55897 -31.0542 9.94952
2.33631 66.9361 -4.69443 -1.0912 -1.1561 14.9273 -2.20641 18.1753 2.79929 3.60772 -11.6385 1.02649 0.339836 -5.84338 1.35263 -1.37355 -17.3708 2.39615 -0.0 0.0 0.0 -0.0 0.0 0.0 4.992e-14 -2.98969e-13 5.27773e-14 69.8078 24.7381 2.5483 -27.4249 -27.8775 63.8696 -0.115615 -9.65093 -1.36946 2.03292e-09 -4.4447e-09 -7.91001e-09 3.57467e-09 -7.88748e-09 -1.36578e-08 2.03293e-09 -4.44471e-09 -7.91002e-09 7.73091 5.47488 0.417314 2.03293e-09 -4.44471e-09 -7.91e-09 2.90554 0.965183 0.102902 2.03293e-09 -4.44471e-09 -7.91001e-09 10.2786 0.731801 0.0259123 2.03292e-09 -4.4447e-09 -7.91e-09 2.22167 -0.733487 -0.20892 5.0072e-14 -2.98974e-13 5.25288e-14 -80.0931 36.4928 2.45211 27.8852 -29.9671 -67.1962 0.378625 -17.2323 2.4984 -7.18241e-11 5.08264e-09 8.34226e-09 -2.36023e-10 8.44906e-09 1.44135e-08 -7.18225e-11 5.08264e-09 8.34228e-09 -7.73091 5.47488 -0.417314 -7.18192e-11 5.08264e-09 8.34226e-09 -2.90554 0.965183 -0.102902 -7.18254e-11 5.08265e-09 8.34226e-09 -10.2786 0.731801 -0.0259123 -7.18173e-11 5.08264e-09 8.34225e-09 -2.22167 -0.733487 0.20892 -2.03217e-16 0.0 -3.88251e-19 -21.1159 -34.4909 -4.01828 -0.690447 57.2467 2.19264 -11.9006 -27.1476 -22.7782 2.03217e-16 0.0 3.88251e-19 27.7854 -28.6171 12.1185 0.567771 52.6514 -1.65935 4.25928 -30.8675 9.48361
2.42076 68.1327 -2.30064 -0.9315 -0.736 14.059 -2.34101 16.5002 2.67282 3.55468 -11.3084 0.972385 0.456304 -5.68071 1.2953 -1.53836 -15.5971 2.24089 -0.0 0.0 0.0 -0.0 0.0 0.0 3.63351e-14 -2.32961e-13 4.7152e-14 68.8607 25.3717 -0.0442873 -28.1359 -30.6543 67.6192 -0.0645981 -8.0333 -1.1348 1.66671e-09 -4.39052e-09 -6.6084e-09 2.93229e-09 -7.76987e-09 -1.14109e-08 1.66672e-09 -4.39053e-09 -6.60841e-09 7.73091 5.47488 0.417314 1.66671e-09 -4.39053e-09 -6.6084e-09 2.90554 0.965183 0.102902 1.66672e-09 -4.39053e-09 -6.6084e-09 10.2786 0.731801 0.0259123 1.6667e-09 -4.39052e-09 -6.60839e-09 2.22167 -0.733487 -0.20892 3.65095e-14 -2.32964e-13 4.68767e-14 -79.7023 36.9749 5.16786 28.3737 -32.4272 -70.5766 0.382025 -17.2515 2.50198 -1.05562e-10 3.79605e-09 6.95212e-09 -2.75539e-10 6.2759e-09 1.20118e-08 -1.05561e-10 3.79605e-09 6.95213e-09 -7.73091 5.47488 -0.417314 -1.05558e-10 3.79606e-09 6.95212e-09 -2.90554 0.965183 -0.102902 -1.05565e-10 3.79606e-09 6.95212e-09 -10.2786 0.731801 -0.0259123 -1.05556e-10 3.79605e-09 6.95211e-09 -2.22167 -0.733487 0.20892 -2.03217e-16 0.0 -3.88251e-19 -21.2546 -29.5781 -4.0702 -0.496715 53.3004 1.8789 -10.8737 -26.1321 -21.6028 2.03217e-16 0.0 3.88251e-19 25.5575 -24.1155 9.78368 0.400319 48.4065 -1.38949 3.91172 -29.4693 9.18323
2.46721 69.8949 0.66129 -0.7446 -0.5069 12.7333 -2.44567 14.3222 2.36167 3.49118 -10.8012 0.861659 0.668435 -5.22721 1.26396 -1.8824 -13.109 2.09271 -0.0 0.0 0.0 -0.0 0.0 0.0 1.39193e-14 -1.34477e-13 2.94543e-14 68.0373 26.4267 -3.52428 -28.5938 -33.7164 72.0169 -0.0128066 -5.44301 -0.764925 1.10174e-09 -4.34281e-09 -4.15342e-09 1.93758e-09 -7.6349e-09 -7.1726e-09 1.10175e-09 -4.34282e-09 -4.15343e-09 7.73091 5.47488 0.417314 1.10174e-09 -4.34282e-09 -4.15342e-09 2.90554 0.965183 0.102902 1.10175e-09 -4.34281e-09 -4.15342e-09 10.2786 0.731801 0.0259123 1.10173e-09 -4.34282e-09 -4.15341e-09 2.22167 -0.733487 -0.20892 1.4073e-14 -1.34477e-13 2.91344e-14 -79.7823 37.6429 9.2847 28.653 -35.1576 -74.5366 0.389064 -17.3121 2.51239 -1.48883e-10 1.39286e-09 4.41932e-09 -3.16566e-10 2.22374e-09 7.63572e-09 -1.48883e-10 1.39286e-09 4.41932e-09 -7.73091 5.47488 -0.417314 -1.48881e-10 1.39286e-09 4.41931e-09 -2.90554 0.965183 -0.102902 -1.48887e-10 1.39286e-09 4.41931e-09 -10.2786 0.731801 -0.0259123 -1.48878e-10 1.39286e-09 4.41931e-09 -2.22167 -0.733487 0.20892 -2.03217e-16 0.0 -3.88251e-19 -21.3847 -22.9867 -4.16725 -0.332409 47.7003 1.52929 -9.37049 -24.5172 -19.8313 2.03217e-16 0.0 3.88251e-19 23.1218 -18.0207 6.8998 0.250081 42.4708 -1.09131 3.49987 -27.1704 8.94979
2.68782 72.1187 4.23364 -0.1523 -0.0723 11.0466 -2.42961 11.9484 1.98399 3.39192 -10.1728 0.726627 0.895211 -4.63616 1.24763 -2.28022 -10.421 1.97577 -0.0 0.0 0.0 -0.0 0.0 0.0 -7.69472e-15 -2.99802e-14 9.27959e-15 67.2089 27.6199 -7.2207 -28.6027 -36.4253 76.7644 0.00642743 -2.69921 -0.378334 4.84665e-10 -3.36675e-09 -1.50476e-09 8.51599e-10 -5.88519e-09 -2.5995e-09 4.84673e-10 -3.36676e-09 -1.50477e-09 7.73091 5.47488 0.417314 4.84666e-10 -3.36676e-09 -1.50477e-09 2.90554 0.965183 0.102902 4.84669e-10 -3.36675e-09 -1.50476e-09 10.2786 0.731801 0.0259123 4.84653e-10 -3.36676e-09 -1.50476e-09 2.22167 -0.733487 -0.20892 -7.58116e-15 -2.99768e-14 8.91347e-15 -80.1645 37.9589 13.98 28.5526 -37.5191 -78.7197 0.379973 -17.0998 2.47979 -1.65621e-10 -9.04064e-10 1.67788e-09 -3.09386e-10 -1.63378e-09 2.8991e-09 -1.65621e-10 -9.04067e-10 1.67788e-09 -7.73091 5.47488 -0.417314 -1.6562e-10 -9.04064e-10 1.67787e-09 -2.90554 0.965183 -0.102902 -1.65627e-10 -9.04066e-10 1.67787e-09 -10.2786 0.731801 -0.0259123 -1.65616e-10 -9.04067e-10 1.67787e-09 -2.22167 -0.733487 0.20892 -2.03217e-16 0.0 -3.88251e-19 -21.3141 -16.2157 -4.23603 -0.25034 41.859 1.24099 -7.44231 -21.6093 -17.7344 2.03217e-16 0.0 3.88251e-19 21.1985 -11.6511 4.10606 0.167012 36.2927 -0.854724 2.73796 -23.5716 8.29961
2.77891 74.4991 7.58 -0.1789 0.1099 10.5492 -2.17844 9.68791 1.64929 3.23023 -9.47902 0.599286 1.05549 -4.06086 1.2352 -2.61547 -8.04794 1.90908 -0.0 0.0 0.0 -0.0 0.0 0.0 -1.88746e-14 5.40675e-14 -3.77691e-15 66.1265 28.7358 -10.4114 -28.2955 -38.3868 81.0769 -0.000474345 -0.621888 -0.0874041 -3.78567e-11 -5.27527e-10 3.77885e-10 -6.45895e-11 -9.2336e-10 6.5161e-10 -3.7849e-11 -5.27531e-10 3.77882e-10 7.73091 5.47488 0.417314 -3.78573e-11 -5.27529e-10 3.77879e-10 2.90554 0.965183 0.102902 -3.78539e-11 -5.27523e-10 3.77886e-10 10.2786 0.731801 0.0259123 -3.78695e-11 -5.27535e-10 3.77888e-10 2.22167 -0.733487 -0.20892 -1.87964e-14 5.40727e-14 -4.17448e-15 -80.457 37.5214 18.2973 28.2135 -39.0839 -82.2952 0.337363 -16.3001 2.35536 -1.19609e-10 -1.87183e-09 -3.38157e-10 -2.04279e-10 -3.22305e-09 -5.84297e-10 -1.1961e-10 -1.87183e-09 -3.38163e-10 -7.73091 5.47488 -0.417314 -1.19609e-10 -1.87183e-09 -3.38166e-10 -2.90554 0.965183 -0.102902 -1.19616e-10 -1.87183e-09 -3.38163e-10 -10.2786 0.731801 -0.0259123 -1.19605e-10 -1.87183e-09 -3.38166e-10 -2.22167 -0.733487 0.20892 -2.03217e-16 0.0 -3.88251e-19 -20.9012 -10.7598 -4.17251 -0.223164 37.19 1.03806 -5.22409 -16.7156 -15.6632 2.03217e-16 0.0 3.88251e-19 20.0019 -6.41326 1.80795 0.131486 31.3211 -0.712552 1.52605 -18.2447 6.84081
2.77056 77.4229 11.0551 -0.6629 0.2045 9.449 -1.48279 7.36452 1.34339 2.95431 -8.62616 0.472524 1.14647 -3.48159 1.2421 -2.91712 -6.02249 1.93065 -0.0 0.0 0.0 -0.0 0.0 0.0 -1.41225e-14 1.17257e-13 -7.01881e-15 64.4102 29.9325 -12.8266 -27.985 -39.9309 84.3774 -0.00790235 0.699068 0.0977652 -4.79085e-10 6.10172e-09 1.23415e-09 -8.31113e-10 1.05845e-08 2.13181e-09 -4.79077e-10 6.10172e-09 1.23415e-09 7.73091 5.47488 0.417314 -4.79085e-10 6.10172e-09 1.23415e-09 2.90554 0.965183 0.102902 -4.79081e-10 6.10172e-09 1.23415e-09 10.2786 0.731801 0.0259123 -4.79096e-10 6.10171e-09 1.23415e-09 2.22167 -0.733487 -0.20892 -1.40772e-14 1.17262e-13 -7.42802e-15 -80.4094 36.335 22.1339 27.9356 -40.0565 -84.6386 0.242168 -14.3272 2.05331 5.02626e-11 -6.54868e-10 -1.40467e-09 1.00419e-10 -1.07372e-09 -2.42727e-09 5.02594e-11 -6.54871e-10 -1.40468e-09 -7.73091 5.47488 -0.417314 5.02617e-11 -6.54871e-10 -1.40468e-09 -2.90554 0.965183 -0.102902 5.02544e-11 -6.54873e-10 -1.40468e-09 -10.2786 0.731801 -0.0259123 5.02644e-11 -6.5487e-10 -1.40468e-09 -2.22167 -0.733487 0.20892 -2.03217e-16 0.0 -3.88251e-19 -20.054 -6.87032 -3.86849 -0.198922 33.7823 0.878284 -2.51112 -8.14429 -13.7192 2.03217e-16 0.0 3.88251e-19 19.3269 -2.49545 -0.142492 0.0971142 27.5666 -0.644715 0.0411566 -9.69277 4.38133
